# xmcd CD database file
#
# Track frame offsets:
#	150
#	12493
#	28405
#	39363
#	54395
#	67203
#	83153
#	96943
#	112383
#	121723
#
# Disc length: 1803 seconds
#
# Revision: 0
# Processed by: cddbd v1.4PL0 Copyright (c) Steve Scherf et al.
# Submitted via: CDex 1.40Beta9
#
DISCID=8a07090a
DTITLE=Mid South Boys - Down To Earth
DYEAR=1989
DGENRE=Country
TTITLE0=Broken Chains
TTITLE1=Matter of Time
TTITLE2=Down To Earth
TTITLE3=Sin Met Grace
TTITLE4=Bring A Little Heaven
TTITLE5=He Didn't Lift Me Up To Let Me Down
TTITLE6=Don't Give Up
TTITLE7=Now You See Me (Now You Don't
TTITLE8=Back to The Basics
TTITLE9=He Delivers
EXTD=YEAR: 1989 ID3G: 2
EXTT0=
EXTT1=
EXTT2=
EXTT3=
EXTT4=
EXTT5=
EXTT6=
EXTT7=
EXTT8=
EXTT9=
PLAYORDER=
